<svg width="73" height="13" viewBox="0 0 73 13" fill="none" xmlns="http://www.w3.org/2000/svg">
<path d="M6.41099 0.173835C6.44815 0.10127 6.55185 0.10127 6.58901 0.173834L8.42922 3.76772C8.44375 3.79609 8.47092 3.81583 8.50239 3.82088L12.489 4.46045C12.5695 4.47337 12.6016 4.572 12.544 4.62976L9.69471 7.49048C9.67222 7.51306 9.66184 7.54501 9.66677 7.57649L10.2904 11.5657C10.303 11.6462 10.2191 11.7072 10.1464 11.6703L6.54522 9.84443C6.5168 9.83002 6.4832 9.83002 6.45478 9.84443L2.85358 11.6703C2.78087 11.7072 2.69697 11.6462 2.70956 11.5657L3.33323 7.57649C3.33816 7.54501 3.32778 7.51306 3.30529 7.49048L0.455954 4.62976C0.398423 4.572 0.43047 4.47337 0.510965 4.46045L4.49761 3.82088C4.52908 3.81583 4.55625 3.79609 4.57078 3.76772L6.41099 0.173835Z" fill="#7F9888"/>
<path d="M21.5672 0.173835C21.6044 0.10127 21.7081 0.10127 21.7453 0.173834L23.5855 3.76772C23.6 3.79609 23.6272 3.81583 23.6586 3.82088L27.6453 4.46045C27.7258 4.47337 27.7578 4.572 27.7003 4.62976L24.851 7.49048C24.8285 7.51306 24.8181 7.54501 24.823 7.57649L25.4467 11.5657C25.4593 11.6462 25.3754 11.7072 25.3027 11.6703L21.7015 9.84443C21.673 9.83002 21.6395 9.83002 21.611 9.84443L18.0098 11.6703C17.9371 11.7072 17.8532 11.6462 17.8658 11.5657L18.4895 7.57649C18.4944 7.54501 18.484 7.51306 18.4615 7.49048L15.6122 4.62976C15.5547 4.572 15.5867 4.47337 15.6672 4.46045L19.6539 3.82088C19.6853 3.81583 19.7125 3.79609 19.727 3.76772L21.5672 0.173835Z" fill="#7F9888"/>
<path d="M36.5672 0.173835C36.6044 0.10127 36.7081 0.10127 36.7453 0.173834L38.5855 3.76772C38.6 3.79609 38.6272 3.81583 38.6586 3.82088L42.6453 4.46045C42.7258 4.47337 42.7578 4.572 42.7003 4.62976L39.851 7.49048C39.8285 7.51306 39.8181 7.54501 39.823 7.57649L40.4467 11.5657C40.4593 11.6462 40.3754 11.7072 40.3027 11.6703L36.7015 9.84443C36.673 9.83002 36.6395 9.83002 36.611 9.84443L33.0098 11.6703C32.9371 11.7072 32.8532 11.6462 32.8658 11.5657L33.4895 7.57649C33.4944 7.54501 33.484 7.51306 33.4615 7.49048L30.6122 4.62976C30.5547 4.572 30.5867 4.47337 30.6672 4.46045L34.6539 3.82088C34.6853 3.81583 34.7125 3.79609 34.727 3.76772L36.5672 0.173835Z" fill="#7F9888"/>
<path d="M51.5672 0.173835C51.6044 0.10127 51.7081 0.10127 51.7453 0.173834L53.5855 3.76772C53.6 3.79609 53.6272 3.81583 53.6586 3.82088L57.6453 4.46045C57.7258 4.47337 57.7578 4.572 57.7003 4.62976L54.851 7.49048C54.8285 7.51306 54.8181 7.54501 54.823 7.57649L55.4467 11.5657C55.4593 11.6462 55.3754 11.7072 55.3027 11.6703L51.7015 9.84443C51.673 9.83002 51.6395 9.83002 51.611 9.84443L48.0098 11.6703C47.9371 11.7072 47.8532 11.6462 47.8658 11.5657L48.4895 7.57649C48.4944 7.54501 48.484 7.51306 48.4615 7.49048L45.6122 4.62976C45.5547 4.572 45.5867 4.47337 45.6672 4.46045L49.6539 3.82088C49.6853 3.81583 49.7125 3.79609 49.727 3.76772L51.5672 0.173835Z" fill="#7F9888"/>
<path d="M65.911 0.173835C65.9481 0.10127 66.0519 0.10127 66.089 0.173834L67.9292 3.76772C67.9437 3.79609 67.9709 3.81583 68.0024 3.82088L71.989 4.46045C72.0695 4.47337 72.1016 4.572 72.044 4.62976L69.1947 7.49048C69.1722 7.51306 69.1618 7.54501 69.1668 7.57649L69.7904 11.5657C69.803 11.6462 69.7191 11.7072 69.6464 11.6703L66.0452 9.84443C66.0168 9.83002 65.9832 9.83002 65.9548 9.84443L62.3536 11.6703C62.2809 11.7072 62.197 11.6462 62.2096 11.5657L62.8332 7.57649C62.8382 7.54501 62.8278 7.51306 62.8053 7.49048L59.956 4.62976C59.8984 4.572 59.9305 4.47337 60.011 4.46045L63.9976 3.82088C64.0291 3.81583 64.0563 3.79609 64.0708 3.76772L65.911 0.173835Z" fill="#7F9888"/>
</svg>
