<svg width="73" height="13" viewBox="0 0 73 13" fill="none" xmlns="http://www.w3.org/2000/svg">
<path d="M4.68204 3.82469L6.5 0.274264L8.31796 3.82469C8.35064 3.88852 8.41179 3.93294 8.48259 3.9443L12.421 4.57614L9.60615 7.40226C9.55555 7.45307 9.53219 7.52495 9.54327 7.5958L10.1594 11.5367L6.60175 9.73294C6.53779 9.70051 6.46221 9.70051 6.39825 9.73294L2.8406 11.5367L3.45673 7.5958C3.46781 7.52495 3.44445 7.45307 3.39385 7.40226L0.578973 4.57614L4.51741 3.9443C4.58821 3.93294 4.64936 3.88852 4.68204 3.82469Z" stroke="black" stroke-opacity="0.5" stroke-width="0.25"/>
<path d="M19.8383 3.82469L21.6562 0.274264L23.4742 3.82469C23.5069 3.88852 23.568 3.93294 23.6388 3.9443L27.5773 4.57614L24.7624 7.40226C24.7118 7.45307 24.6884 7.52495 24.6995 7.5958L25.3156 11.5367L21.758 9.73294C21.694 9.70051 21.6185 9.70051 21.5545 9.73294L17.9969 11.5367L18.613 7.5958C18.6241 7.52495 18.6007 7.45307 18.5501 7.40226L15.7352 4.57614L19.6737 3.9443C19.7445 3.93294 19.8056 3.88852 19.8383 3.82469Z" stroke="black" stroke-opacity="0.5" stroke-width="0.25"/>
<path d="M34.8383 3.82469L36.6562 0.274264L38.4742 3.82469C38.5069 3.88852 38.568 3.93294 38.6388 3.9443L42.5773 4.57614L39.7624 7.40226C39.7118 7.45307 39.6884 7.52495 39.6995 7.5958L40.3156 11.5367L36.758 9.73294C36.694 9.70051 36.6185 9.70051 36.5545 9.73294L32.9969 11.5367L33.613 7.5958C33.6241 7.52495 33.6007 7.45307 33.5501 7.40226L30.7352 4.57614L34.6737 3.9443C34.7445 3.93294 34.8056 3.88852 34.8383 3.82469Z" stroke="black" stroke-opacity="0.5" stroke-width="0.25"/>
<path d="M49.8383 3.82469L51.6562 0.274264L53.4742 3.82469C53.5069 3.88852 53.568 3.93294 53.6388 3.9443L57.5773 4.57614L54.7624 7.40226C54.7118 7.45307 54.6884 7.52495 54.6995 7.5958L55.3156 11.5367L51.758 9.73294C51.694 9.70051 51.6185 9.70051 51.5545 9.73294L47.9969 11.5367L48.613 7.5958C48.6241 7.52495 48.6007 7.45307 48.5501 7.40226L45.7352 4.57614L49.6737 3.9443C49.7445 3.93294 49.8056 3.88852 49.8383 3.82469Z" stroke="black" stroke-opacity="0.5" stroke-width="0.25"/>
<path d="M64.182 3.82469L66 0.274264L67.818 3.82469C67.8506 3.88852 67.9118 3.93294 67.9826 3.9443L71.921 4.57614L69.1061 7.40226C69.0555 7.45307 69.0322 7.52495 69.0433 7.5958L69.6594 11.5367L66.1017 9.73294C66.0378 9.70051 65.9622 9.70051 65.8983 9.73294L62.3406 11.5367L62.9567 7.5958C62.9678 7.52495 62.9445 7.45307 62.8939 7.40226L60.079 4.57614L64.0174 3.9443C64.0882 3.93294 64.1494 3.88852 64.182 3.82469Z" stroke="black" stroke-opacity="0.5" stroke-width="0.25"/>
</svg>
